<?xml version="1.0" standalone="no"?>
<!DOCTYPE svg PUBLIC "-//W3C//DTD SVG 20010904//EN"
 "http://www.w3.org/TR/2001/REC-SVG-20010904/DTD/svg10.dtd">
<svg version="1.0" xmlns="http://www.w3.org/2000/svg"
 width="920.000000pt" height="920.000000pt" viewBox="0 0 920.000000 920.000000"
 preserveAspectRatio="xMidYMid meet">

<g transform="translate(0.000000,920.000000) scale(0.100000,-0.100000)"
fill="#000000" stroke="none">
<path d="M4020 7045 l0 -145 -285 0 -285 0 0 -145 0 -145 -145 0 -145 0 0
-140 0 -139 -142 -3 -143 -3 -3 -287 -2 -288 -140 0 -140 0 0 -865 0 -865 140
0 140 0 0 -140 0 -140 145 0 145 0 0 -290 0 -290 145 0 145 0 0 -145 0 -145
145 0 145 0 0 -140 0 -140 1150 0 1150 0 0 140 0 139 143 3 142 3 3 143 3 142
139 0 140 0 0 290 0 290 145 0 145 0 0 140 0 140 145 0 145 0 0 865 0 865
-145 0 -145 0 0 290 0 290 -145 0 -145 0 0 140 0 140 -140 0 -140 0 0 145 0
145 -290 0 -290 0 0 145 0 145 -865 0 -865 0 0 -145z m1730 -290 l0 -145 285
0 284 0 3 -142 3 -143 143 -3 142 -3 0 -284 0 -285 -430 0 -430 0 0 145 0 145
-145 0 -145 0 0 140 0 139 -142 3 -143 3 -3 288 -2 287 290 0 290 0 0 -145z
m-1722 -287 l-3 -143 -142 -3 -143 -3 0 -139 0 -140 -145 0 -145 0 0 -145 0
-145 -145 0 -145 0 0 285 0 285 145 0 145 0 0 145 0 145 290 0 291 0 -3 -142z
m1152 -573 l0 -145 140 0 140 0 0 -430 0 -430 -140 0 -140 0 0 -145 0 -145
-580 0 -580 0 0 145 0 145 -140 0 -140 0 0 430 0 430 140 0 140 0 0 145 0 145
580 0 580 0 0 -145z m1430 -575 l0 -140 145 0 145 0 0 -290 0 -290 -145 0
-145 0 0 -145 0 -145 -285 0 -285 0 0 145 0 145 -145 0 -145 0 0 290 0 290
145 0 145 0 0 140 0 140 285 0 285 0 0 -140z m-3450 -285 l0 -145 145 0 145 0
0 -290 0 -290 -145 0 -145 0 0 -140 0 -140 -140 0 -140 0 0 575 0 575 140 0
140 0 0 -145z m1150 -1300 l0 -285 145 0 145 0 0 285 0 285 285 0 285 0 0
-285 0 -285 145 0 145 0 0 285 0 285 290 0 290 0 0 -140 0 -140 140 0 140 0 0
-290 0 -290 -140 0 -140 0 0 -140 0 -140 -1150 0 -1150 0 0 140 0 140 -145 0
-145 0 0 290 0 290 145 0 145 0 0 140 0 140 285 0 285 0 0 -285z"/>
</g>
</svg>
